<?xml version="1.0" encoding="UTF-8" standalone="no"?>
<!-- Generator: Adobe Illustrator 25.0.0, SVG Export Plug-In . SVG Version: 6.00 Build 0)  -->
<svg version="1.1" xmlns="http://www.w3.org/2000/svg" xmlns:xlink="http://www.w3.org/1999/xlink"
     x="0px" y="0px" width="512px" height="512px" viewBox="0 0 512 512"
     style="enable-background:new 0 0 512 512;" xml:space="preserve">
  <metadata>Generated by some-tool, please clean me up.</metadata>
  <defs>
    <style type="text/css">
      .st0 { fill: #ff0000; }
      .st1 { fill: rgb(0, 255, 0); }
      .st2 { stroke: #0000ff; stroke-width: 2; }
      .unused { fill: yellow; }
    </style>
    <linearGradient id="grad-unused" x1="0" y1="0" x2="1" y2="1">
      <stop offset="0" stop-color="#000"/>
      <stop offset="1" stop-color="#fff"/>
    </linearGradient>
    <linearGradient id="grad" x1="0" y1="0" x2="1" y2="1">
      <stop offset="0" style="stop-color:#0066ff"/>
      <stop offset="1" style="stop-color:#9900ff"/>
    </linearGradient>
  </defs>
  <g id="layer1" transform="translate(0,0)">
    <g id="empty-group"></g>
    <rect x="10.000000" y="20.000000" width="100.0" height="100.0" fill="#ffffff" opacity="1.0"/>
    <rect x="10" y="120" width="100" height="100" fill="#ff0000" stroke="none"/>
    <circle cx="200.5" cy="200.5" r="50.5" class="st0"/>
    <ellipse cx="300" cy="300" rx="40" ry="20" class="st1"/>
    <line x1="0" y1="0" x2="100" y2="100" class="st2"/>
    <path d="M 100.000 100.000 L 200.000 100.000 L 200.000 200.000 L 100.000 200.000 Z" fill="#000000"/>
    <path d="M50,50 l10,0 l0,10 l-10,0 l0,-10 z" fill="#abc"/>
    <path d="M 0 0 C 10 0 20 10 20 20 S 30 30 40 40 C 50 50 60 50 70 40 Z" fill="#123456"/>
    <g transform="translate(50,50)">
      <g transform="translate(10,10)">
        <rect x="0" y="0" width="20" height="20" fill="url(#grad)"/>
      </g>
    </g>
    <text x="20" y="500" font-family="Arial" font-size="12" fill="#222">Messy demo</text>
    <!-- comment that should be stripped -->
    <g></g>
  </g>
  <g id="another-empty"/>
</svg>
